<?xml version="1.0" encoding="iso-8859-1"?>
<!-- Generator: Adobe Illustrator 19.0.0, SVG Export Plug-In . SVG Version: 6.00 Build 0)  -->
<svg version="1.1" id="Layer_1" xmlns="http://www.w3.org/2000/svg" xmlns:xlink="http://www.w3.org/1999/xlink" x="0px" y="0px"
	 viewBox="0 0 512.001 512.001" style="enable-background:new 0 0 512.001 512.001;" xml:space="preserve">
<path style="fill:#FF8800;" d="M55.836,195.926c-26.334,38.722-41.728,85.485-41.728,135.846v37.212
	C14.108,447.971,78.139,512,157.123,512h197.755c78.986,0,143.015-64.031,143.015-143.015v-37.212
	c0-50.361-15.392-97.124-41.726-135.846L55.836,195.926L55.836,195.926z"/>
<g>
	<path style="fill:#B35F00;" d="M174.25,245.664c-6.658-7.801-18.677-7.801-25.335,0c-19.176,22.466-50.256,74.1-19.597,74.1h64.528
		C224.506,319.765,193.427,268.132,174.25,245.664z"/>
	<path style="fill:#B35F00;" d="M337.752,245.664c6.658-7.801,18.677-7.801,25.335,0c19.176,22.466,50.256,74.1,19.597,74.1h-64.528
		C287.495,319.765,318.576,268.132,337.752,245.664z"/>
	<path style="fill:#B35F00;" d="M247.379,305.273c4.532-5.309,12.713-5.309,17.245,0c13.052,15.293,34.208,50.438,13.339,50.438
		H234.04C213.171,355.713,234.325,320.566,247.379,305.273z"/>
	<path style="fill:#B35F00;" d="M318.478,367.326h-26.229v11.619c0,5.881-4.767,10.65-10.65,10.65c-5.883,0-10.65-4.768-10.65-10.65
		v-11.619h-29.898v11.619c0,5.881-4.767,10.65-10.65,10.65s-10.65-4.768-10.65-10.65v-11.619h-26.229
		c-5.883,0-10.65,4.768-10.65,10.65c0,40.322,32.805,73.127,73.127,73.127s73.127-32.805,73.127-73.127
		C329.128,372.094,324.361,367.326,318.478,367.326z"/>
</g>
<g>
	<path style="fill:#20272E;" d="M456.166,206.579c-4.467,0-8.626-2.831-10.107-7.304L410.966,93.34
		c-11.537-34.824-43.936-58.222-80.62-58.222c-5.883,0-10.65-4.768-10.65-10.65s4.767-10.65,10.65-10.65
		c45.884,0,86.409,29.265,100.839,72.823l35.092,105.936c1.85,5.583-1.177,11.609-6.76,13.458
		C458.405,206.404,457.275,206.579,456.166,206.579z"/>
	<path style="fill:#20272E;" d="M55.836,206.579c-1.109,0-2.238-0.175-3.35-0.542c-5.583-1.849-8.609-7.875-6.76-13.458
		L80.818,86.643c14.429-43.558,54.955-72.823,100.84-72.823c5.883,0,10.65,4.768,10.65,10.65s-4.767,10.65-10.65,10.65
		c-36.686,0-69.084,23.398-80.621,58.222L65.944,199.276C64.463,203.748,60.303,206.579,55.836,206.579z"/>
</g>
<rect x="181.654" style="fill:#00C279;" width="148.682" height="48.938"/>
<path style="opacity:0.3;fill:#20272E;enable-background:new    ;" d="M461.948,204.859c3.976-2.57,5.887-7.577,4.328-12.281
	L431.183,86.643c-14.429-43.558-54.953-72.825-100.837-72.825l0,0V0h-74.344v48.938h74.344V35.119l0,0
	c36.684,0,69.083,23.398,80.62,58.222l33.983,102.587H256.001v316.073h98.878c78.984,0,143.015-64.031,143.015-143.015v-37.212
	C497.894,285.222,484.735,241.752,461.948,204.859z"/>
<g>
</g>
<g>
</g>
<g>
</g>
<g>
</g>
<g>
</g>
<g>
</g>
<g>
</g>
<g>
</g>
<g>
</g>
<g>
</g>
<g>
</g>
<g>
</g>
<g>
</g>
<g>
</g>
<g>
</g>
</svg>
